:FULLY-SPECIFIED
:FORCE-ALL-JOINTS-BE-3DOF
:DEGREES
102
root -2.86168 16.5075 -36.2275 2.76884 0.290001 -2.38486
lfemur -21.0384 5.94953 -8.98107
ltibia 44.7079 -0 0
lfoot -21.6642 -0.172956 -0.00649115
ltoes -7.70838 0 0
rfemur -21.4596 -5.84036 13.9248
rtibia 47.3495 -0 0
rfoot -25.5806 1.49465 -0.0015522
rtoes -6.55276 0 0
lowerback 8.51765 1.97476 -1.63941
upperback -3.44471 2.54923 1.22661
thorax -8.56675 1.37123 1.81703
lowerneck -2.49813 -3.86774 -6.62164
upperneck 5.27496 -5.20963 6.01166
head 2.52089 -2.57907 2.97967
lclavicle -6.19649e-16 1.80894e-14 0
lhumerus -26.567 -4.03044 89.4257
lradius 24.9907 -0 0
lwrist -30.5367 0 0
lhand -28.6725 30.3459 0.000351794
lfingers 7.12502 -0 0
lthumb -2.03543 60.3159 0.000341949
rclavicle -6.19649e-16 1.80894e-14 0
rhumerus -32.5295 3.00769 -80.5022
rradius 30.6855 -0 0
rwrist 2.52077 0 0
rhand -19.9525 -27.0873 0.000133751
rfingers 7.12502 -0 0
rthumb 6.38564 -56.9716 7.96039e-05
103
root -2.85965 16.5059 -36.2252 2.81108 0.298533 -2.39919
lfemur -21.0956 5.94165 -8.97569
ltibia 44.743 -0 0
lfoot -21.6892 -0.146833 -0.00630984
ltoes -7.77176 0 0
rfemur -21.5038 -5.86062 13.9335
rtibia 47.3646 -0 0
rfoot -25.5962 1.50652 -0.00151008
rtoes -6.58472 0 0
lowerback 8.45493 1.97334 -1.65087
upperback -3.46635 2.54702 1.22853
thorax -8.55412 1.37109 1.82744
lowerneck -2.50169 -3.86859 -6.61897
upperneck 5.31214 -5.21227 6.01524
head 2.53427 -2.58024 2.98033
lclavicle -6.19649e-16 1.80894e-14 0
lhumerus -26.5651 -4.00342 89.4143
lradius 24.9872 -0 0
lwrist -30.543 0 0
lhand -28.6618 30.3594 0.000356974
lfingers 7.12502 -0 0
lthumb -2.02503 60.3295 0.000346966
rclavicle -6.19649e-16 1.80894e-14 0
rhumerus -32.5376 2.9836 -80.5025
rradius 30.6792 -0 0
rwrist 2.52698 0 0
rhand -19.942 -27.101 0.000129113
rfingers 7.12502 -0 0
rthumb 6.39585 -56.985 7.70508e-05
104
root -2.85761 16.5042 -36.223 2.8531 0.306785 -2.41361
lfemur -21.1521 5.93306 -8.97009
ltibia 44.7773 -0 0
lfoot -21.7137 -0.119519 -0.00609103
ltoes -7.83698 0 0
rfemur -21.5477 -5.88056 13.9423
rtibia 47.3792 -0 0
rfoot -25.6114 1.5187 -0.00145949
rtoes -6.61697 0 0
lowerback 8.39275 1.97198 -1.66247
upperback -3.48783 2.54491 1.2305
thorax -8.54165 1.371 1.83794
lowerneck -2.5058 -3.86938 -6.61632
upperneck 5.34935 -5.21483 6.01896
head 2.54777 -2.58135 2.98103
lclavicle -6.19649e-16 1.80894e-14 0
lhumerus -26.5632 -3.97606 89.4029
lradius 24.9836 -0 0
lwrist -30.5495 0 0
lhand -28.651 30.3725 0.000359613
lfingers 7.12502 -0 0
lthumb -2.0146 60.3427 0.000349512
rclavicle -6.19649e-16 1.80894e-14 0
rhumerus -32.5457 2.95909 -80.5024
rradius 30.6726 -0 0
rwrist 2.53357 0 0
rhand -19.9321 -27.1144 0.000123817
rfingers 7.12502 -0 0
rthumb 6.4054 -56.9981 7.4134e-05
105
root -2.85558 16.5026 -36.2207 2.89483 0.314773 -2.42806
lfemur -21.208 5.92391 -8.96429
ltibia 44.8109 -0 0
lfoot -21.7379 -0.0912146 -0.00583807
ltoes -7.90369 0 0
rfemur -21.5913 -5.90021 13.9513
rtibia 47.3933 -0 0
rfoot -25.6263 1.53112 -0.00140121
rtoes -6.64944 0 0
lowerback 8.33122 1.9707 -1.67417
upperback -3.50912 2.54289 1.23251
thorax -8.52936 1.37096 1.84849
lowerneck -2.51043 -3.87013 -6.6137
upperneck 5.38653 -5.2173 6.02281
head 2.56135 -2.58242 2.98178
lclavicle -6.19649e-16 1.80894e-14 0
lhumerus -26.5614 -3.94833 89.3915
lradius 24.9801 -0 0
lwrist -30.556 0 0
lhand -28.6402 30.3854 0.000359683
lfingers 7.12502 -0 0
lthumb -2.00417 60.3557 0.000349562
rclavicle -6.19649e-16 1.80894e-14 0
rhumerus -32.5538 2.9342 -80.5021
rradius 30.6659 -0 0
rwrist 2.54052 0 0
rhand -19.9228 -27.1277 0.000117893
rfingers 7.12502 -0 0
rthumb 6.41433 -57.0111 7.08489e-05
106
root -2.85355 16.501 -36.2184 2.93621 0.322513 -2.44249
lfemur -21.2633 5.91431 -8.95832
ltibia 44.844 -0 0
lfoot -21.7617 -0.0621188 -0.00555445
ltoes -7.9715 0 0
rfemur -21.6344 -5.91957 13.9604
rtibia 47.4071 -0 0
rfoot -25.641 1.54371 -0.00133603
rtoes -6.68206 0 0
lowerback 8.27043 1.96947 -1.68589
upperback -3.53016 2.54096 1.23453
thorax -8.51724 1.37096 1.85905
lowerneck -2.51551 -3.87083 -6.61111
upperneck 5.42359 -5.21969 6.02674
head 2.57498 -2.58342 2.98256
lclavicle -6.19649e-16 1.80894e-14 0
lhumerus -26.5597 -3.92024 89.3802
lradius 24.9765 -0 0
lwrist -30.5626 0 0
lhand -28.6294 30.3978 0.000357186
lfingers 7.12502 -0 0
lthumb -1.99375 60.3682 0.000347118
rclavicle -6.19649e-16 1.80894e-14 0
rhumerus -32.5618 2.909 -80.5014
rradius 30.6589 -0 0
rwrist 2.54783 0 0
rhand -19.9142 -27.1406 0.000111376
rfingers 7.12502 -0 0
rthumb 6.42265 -57.0237 6.71956e-05
107
root -2.85152 16.4994 -36.2161 2.97715 0.330022 -2.45688
lfemur -21.3179 5.9044 -8.95222
ltibia 44.8765 -0 0
lfoot -21.7852 -0.0324314 -0.00524382
ltoes -8.04006 0 0
rfemur -21.6772 -5.93866 13.9696
rtibia 47.4207 -0 0
rfoot -25.6555 1.55641 -0.0012648
rtoes -6.71475 0 0
lowerback 8.21049 1.96831 -1.6976
upperback -3.55092 2.53912 1.23657
thorax -8.50533 1.37099 1.86958
lowerneck -2.52103 -3.87148 -6.60856
upperneck 5.46046 -5.22199 6.03073
head 2.58862 -2.58438 2.98337
lclavicle -6.19649e-16 1.80894e-14 0
lhumerus -26.5581 -3.89179 89.3689
lradius 24.973 -0 0
lwrist -30.5694 0 0
lhand -28.6186 30.4099 0.000352147
lfingers 7.12502 -0 0
lthumb -1.98338 60.3804 0.000342203
rclavicle -6.19649e-16 1.80894e-14 0
rhumerus -32.5696 2.88355 -80.5003
rradius 30.6517 -0 0
rwrist 2.55547 0 0
rhand -19.9062 -27.1531 0.000104307
rfingers 7.12502 -0 0
rthumb 6.4304 -57.036 6.31803e-05
108
root -2.84949 16.4978 -36.2139 3.01759 0.337314 -2.47116
lfemur -21.3718 5.89431 -8.946
ltibia 44.9086 -0 0
lfoot -21.8084 -0.00235204 -0.00490997
ltoes -8.10899 0 0
rfemur -21.7196 -5.95749 13.9788
rtibia 47.4341 -0 0
rfoot -25.6697 1.56913 -0.00118835
rtoes -6.74746 0 0
lowerback 8.1515 1.9672 -1.70923
upperback -3.57137 2.53736 1.23861
thorax -8.49362 1.37105 1.88002
lowerneck -2.52693 -3.8721 -6.60605
upperneck 5.49707 -5.22421 6.03476
head 2.60224 -2.58529 2.9842
lclavicle -6.19649e-16 1.80894e-14 0
lhumerus -26.5566 -3.86296 89.3575
lradius 24.983 -0 0
lwrist -30.5763 0 0
lhand -28.608 30.4215 0.000344617
lfingers 7.12502 -0 0
lthumb -1.97307 60.392 0.000334869
rclavicle -6.19649e-16 1.80894e-14 0
rhumerus -32.5774 2.85791 -80.4989
rradius 30.6444 -0 0
rwrist 2.56342 0 0
rhand -19.8987 -27.1653 9.67383e-05
rfingers 7.12502 -0 0
rthumb 6.4376 -57.0479 5.88174e-05
